<svg xmlns="http://www.w3.org/2000/svg" width="1920" height="1080" viewBox="0 0 1920 1080">
<defs><marker id="arrow" viewBox="0 0 10 10" refX="9" refY="5" markerWidth="8" markerHeight="8" orient="auto-start-reverse"><path d="M 0 0 L 10 5 L 0 10 z" fill="#2a75c9"/></marker></defs>
<rect width="1920" height="1080" fill="#f7fbff"/>
<text x="70" y="70" fill="#1155aa" font-family="Apple SD Gothic Neo" font-size="38" font-weight="700" text-anchor="start">삼도식당 1화 · 파란선 러프 콘티 · CUT 32</text>
<text x="1850" y="70" fill="#1155aa" font-family="Apple SD Gothic Neo" font-size="34" font-weight="700" text-anchor="end">3:47–3:55  (08s)</text>
<rect x="70" y="140" width="1780" height="625" rx="8" fill="#f7fbff" stroke="#1155aa" stroke-width="7"/><path d="M70,660 L1850,660 M260,765 L820,430 M1660,765 L1100,430" fill="none" stroke="#a9c7e8" stroke-width="4" stroke-dasharray="16 14"/><rect x="250" y="550" width="1420" height="130" fill="none" stroke="#1155aa" stroke-width="8"/><circle cx="700" cy="410" r="28" fill="none" stroke="#1155aa" stroke-width="7"/><circle cx="710" cy="406" r="4" fill="#1155aa"/><path d="M700,438 L700,528 M658,483 L742,483 M700,528 L665,583 M700,528 L735,583" fill="none" stroke="#1155aa" stroke-width="7" stroke-linecap="round"/><path d="M665,483 L603,471 M735,483 L797,471" fill="none" stroke="#1155aa" stroke-width="7" stroke-linecap="round"/><text x="700" y="368" fill="#1155aa" font-family="Apple SD Gothic Neo" font-size="22" font-weight="700" text-anchor="middle">도윤</text><circle cx="1280" cy="400" r="28" fill="none" stroke="#1155aa" stroke-width="7"/><circle cx="1270" cy="396" r="4" fill="#1155aa"/><path d="M1280,428 L1280,518 M1238,473 L1322,473 M1280,518 L1245,573 M1280,518 L1315,573" fill="none" stroke="#1155aa" stroke-width="7" stroke-linecap="round"/><path d="M1245,473 L1183,461 M1315,473 L1377,461" fill="none" stroke="#1155aa" stroke-width="7" stroke-linecap="round"/><text x="1280" y="358" fill="#1155aa" font-family="Apple SD Gothic Neo" font-size="22" font-weight="700" text-anchor="middle">연화</text><rect x="700" y="240" width="550" height="420" fill="none" stroke="#1155aa" stroke-width="10"/><rect x="1270" y="325" width="110" height="75" fill="none" stroke="#1155aa" stroke-width="8"/><text x="1325" y="380" fill="#1155aa" font-family="Apple SD Gothic Neo" font-size="25" font-weight="400" text-anchor="middle">영업</text>
<rect x="70" y="795" width="1780" height="220" rx="8" fill="#dfeeff" stroke="#1155aa" stroke-width="5"/>
<text x="100" y="835" fill="#1155aa" font-family="Apple SD Gothic Neo" font-size="28" font-weight="700" text-anchor="start">샷 LS   |   카메라 EXTERIOR / HOLD</text>
<text x="1000" y="835" fill="#1155aa" font-family="Apple SD Gothic Neo" font-size="28" font-weight="700" text-anchor="start">인물·시선 연화 문 C, D 화덕 L</text>
<text x="100" y="885" fill="#5c7190" font-family="Apple SD Gothic Neo" font-size="25" font-weight="400" text-anchor="start">목패 걸기·영업등 점등. 푸른 안개와 문종.</text><text x="1000" y="885" fill="#1155aa" font-family="Apple SD Gothic Neo" font-size="25" font-weight="600" text-anchor="start">연화: 개점이니라! / SFX 탁</text>
<text x="70" y="1055" fill="#5c7190" font-family="Apple SD Gothic Neo" font-size="20" font-weight="400" text-anchor="start">LOCKED SCRIPT: episode_001_daily_opening_v0.1.md  ·  PREVIS ONLY / 비정본 디자인</text>
</svg>