<svg xmlns="http://www.w3.org/2000/svg" width="1920" height="1080" viewBox="0 0 1920 1080">
<defs><marker id="arrow" viewBox="0 0 10 10" refX="9" refY="5" markerWidth="8" markerHeight="8" orient="auto-start-reverse"><path d="M 0 0 L 10 5 L 0 10 z" fill="#2a75c9"/></marker></defs>
<rect width="1920" height="1080" fill="#f7fbff"/>
<text x="70" y="70" fill="#1155aa" font-family="Apple SD Gothic Neo" font-size="38" font-weight="700" text-anchor="start">삼도식당 1화 · 파란선 러프 콘티 · CUT 24</text>
<text x="1850" y="70" fill="#1155aa" font-family="Apple SD Gothic Neo" font-size="34" font-weight="700" text-anchor="end">2:34–2:38  (04s)</text>
<rect x="70" y="140" width="1780" height="625" rx="8" fill="#f7fbff" stroke="#1155aa" stroke-width="7"/><path d="M70,660 L1850,660 M260,765 L820,430 M1660,765 L1100,430" fill="none" stroke="#a9c7e8" stroke-width="4" stroke-dasharray="16 14"/><ellipse cx="620" cy="540" rx="135" ry="38" fill="none" stroke="#1155aa" stroke-width="8"/><path d="M535,540 Q620,480 705,540" fill="none" stroke="#1155aa" stroke-width="7"/><ellipse cx="1300" cy="540" rx="135" ry="38" fill="none" stroke="#1155aa" stroke-width="8"/><path d="M1215,540 Q1300,480 1385,540" fill="none" stroke="#1155aa" stroke-width="7"/><path d="M520,535 L720,485 M1200,535 L1400,485" stroke="#1155aa" stroke-width="9"/>
<rect x="70" y="795" width="1780" height="220" rx="8" fill="#dfeeff" stroke="#1155aa" stroke-width="5"/>
<text x="100" y="835" fill="#1155aa" font-family="Apple SD Gothic Neo" font-size="28" font-weight="700" text-anchor="start">샷 TOP   |   카메라 TOP / SETTLE</text>
<text x="1000" y="835" fill="#1155aa" font-family="Apple SD Gothic Neo" font-size="28" font-weight="700" text-anchor="start">인물·시선 두 접시 L/R, D 손 C</text>
<text x="100" y="885" fill="#5c7190" font-family="Apple SD Gothic Neo" font-size="25" font-weight="400" text-anchor="start">금빛 뿌리·검은 껍질·투명 살·푸른 소금 완성.</text><text x="1000" y="885" fill="#1155aa" font-family="Apple SD Gothic Neo" font-size="25" font-weight="600" text-anchor="start">도윤: 간 봐.</text>
<text x="70" y="1055" fill="#5c7190" font-family="Apple SD Gothic Neo" font-size="20" font-weight="400" text-anchor="start">LOCKED SCRIPT: episode_001_daily_opening_v0.1.md  ·  PREVIS ONLY / 비정본 디자인</text>
</svg>